<svg id="Layer_1" data-name="Layer 1" xmlns="http://www.w3.org/2000/svg" viewBox="0 0 257 256"><defs><style>.cls-1{fill:#d3b229;}.cls-2{opacity:0.8;}.cls-3{fill:#fff;}</style></defs><title>icon</title><rect class="cls-1" width="257" height="256"/><rect class="cls-2" x="0.5" y="98" width="256" height="60"/><path class="cls-3" d="M11.56,136.17h-2L20.19,118.5h1.9Z" transform="translate(0.5 0)"/><path class="cls-3" d="M27.58,128.58v-3.73l-2.82,2-1-1.73,3.3-1.61-3.3-1.63,1-1.71,2.82,2V118.5h2v3.74l2.83-2,1,1.7-3.31,1.63,3.31,1.61-1,1.74-2.83-2v3.73Z" transform="translate(0.5 0)"/><path class="cls-3" d="M51.3,128.57v7.09H49.13V119h4.45a8.59,8.59,0,0,1,3.21.45,3.44,3.44,0,0,1,1.59,1.35,3.6,3.6,0,0,1,.56,1.94,5.39,5.39,0,0,1-.37,1.94,5.92,5.92,0,0,1-1,1.74,6.85,6.85,0,0,1-1.9,1.45l4.82,7.8H57.87l-4.42-7.09Zm0-1.67h3a5.45,5.45,0,0,0,1.52-1.14,4.34,4.34,0,0,0,.76-1.24,3.57,3.57,0,0,0,.26-1.31,2.28,2.28,0,0,0-.85-1.87,5.07,5.07,0,0,0-3.09-.69H51.3Z" transform="translate(0.5 0)"/><path class="cls-3" d="M71.94,134.87A10.64,10.64,0,0,1,67.4,136a5.32,5.32,0,0,1-2.9-.81,5.72,5.72,0,0,1-2-2.3,6.91,6.91,0,0,1-.77-3.2,7.17,7.17,0,0,1,.73-3.16,5.64,5.64,0,0,1,2-2.36,5.29,5.29,0,0,1,2.92-.84,4.28,4.28,0,0,1,3.43,1.52,7.14,7.14,0,0,1,1.29,4.7V130H63.83a5,5,0,0,0,.52,2.28,3.7,3.7,0,0,0,1.37,1.55,3.63,3.63,0,0,0,1.93.52A9,9,0,0,0,71.94,133Zm-8-6.38h6v-.29a3.54,3.54,0,0,0-.72-2.33,2.37,2.37,0,0,0-1.92-.87,2.87,2.87,0,0,0-2.1.88A5,5,0,0,0,64,128.49Z" transform="translate(0.5 0)"/><path class="cls-3" d="M82.74,133a6.47,6.47,0,0,1-2.2,2.27,4.71,4.71,0,0,1-2.36.76,3.61,3.61,0,0,1-2.71-1.3,5.64,5.64,0,0,1-1.2-3.94,8.41,8.41,0,0,1,.8-3.72,6.7,6.7,0,0,1,2.13-2.59,5.55,5.55,0,0,1,3.3-1q.57,0,1.72.12l.51.05h2v8.49q0,3-.08,3.7a10.12,10.12,0,0,1-.26,1.36,4.14,4.14,0,0,1-2,2.52,7,7,0,0,1-3.7.92,9.83,9.83,0,0,1-4.42-1.12v-2a9.28,9.28,0,0,0,2.09,1,7.11,7.11,0,0,0,2.4.45,5.14,5.14,0,0,0,1.73-.29,3.23,3.23,0,0,0,1.32-.84,2.9,2.9,0,0,0,.69-1.27,8.22,8.22,0,0,0,.18-1.93Zm0-2.38v-5.15a7.82,7.82,0,0,0-2-.28,3.9,3.9,0,0,0-3.08,1.43,5.76,5.76,0,0,0-1.23,3.89,4.49,4.49,0,0,0,.67,2.69,1.91,1.91,0,0,0,1.53.91,3.36,3.36,0,0,0,2.07-.95A9,9,0,0,0,82.74,130.59Z" transform="translate(0.5 0)"/><path class="cls-3" d="M97.46,134.87A10.63,10.63,0,0,1,92.93,136a5.33,5.33,0,0,1-2.9-.81,5.73,5.73,0,0,1-2-2.3,6.92,6.92,0,0,1-.77-3.2,7.17,7.17,0,0,1,.73-3.16,5.64,5.64,0,0,1,2-2.36,5.29,5.29,0,0,1,2.92-.84,4.28,4.28,0,0,1,3.43,1.52,7.14,7.14,0,0,1,1.29,4.7V130H89.36a5,5,0,0,0,.52,2.28,3.71,3.71,0,0,0,1.37,1.55,3.64,3.64,0,0,0,1.93.52A9,9,0,0,0,97.46,133Zm-8-6.38h6v-.29a3.55,3.55,0,0,0-.72-2.33,2.37,2.37,0,0,0-1.92-.87,2.87,2.87,0,0,0-2.1.88A5,5,0,0,0,89.48,128.49Z" transform="translate(0.5 0)"/><path class="cls-3" d="M100.24,135.66v-12h2v2.62a6.78,6.78,0,0,1,2.07-2.17,4.45,4.45,0,0,1,2.43-.78,3.48,3.48,0,0,1,1.93.56,3,3,0,0,1,1.22,1.48,11.87,11.87,0,0,1,.35,3.59v6.7h-2v-7a9.82,9.82,0,0,0-.17-2.28,1.79,1.79,0,0,0-.61-.91,1.53,1.53,0,0,0-1-.35,3.65,3.65,0,0,0-2.26,1,8,8,0,0,0-2,2.5v7Z" transform="translate(0.5 0)"/><path class="cls-3" d="M117.93,136.17a1.75,1.75,0,0,1-1.23-3,1.74,1.74,0,0,1,2.46,0,1.75,1.75,0,0,1-1.23,3Z" transform="translate(0.5 0)"/><path class="cls-3" d="M137.31,135.66V120.83h-5V119h12.16v1.84h-5v14.83Z" transform="translate(0.5 0)"/><path class="cls-3" d="M146.23,135.66V118.33h2v8a6.78,6.78,0,0,1,2.07-2.17,4.45,4.45,0,0,1,2.43-.78,3.47,3.47,0,0,1,1.86.52,2.9,2.9,0,0,1,1.18,1.26,4.35,4.35,0,0,1,.37,1.21,22.24,22.24,0,0,1,.1,2.64v6.7h-2v-7a9.82,9.82,0,0,0-.17-2.28,1.79,1.79,0,0,0-.61-.91,1.53,1.53,0,0,0-1-.35,3.65,3.65,0,0,0-2.26,1,8,8,0,0,0-2,2.5v7Z" transform="translate(0.5 0)"/><path class="cls-3" d="M168.86,123.67v12h-2V133a7.19,7.19,0,0,1-2.15,2.22,4.42,4.42,0,0,1-2.36.74,3.49,3.49,0,0,1-1.93-.56,3,3,0,0,1-1.22-1.48,12.08,12.08,0,0,1-.34-3.58v-6.7h2v7a9.75,9.75,0,0,0,.17,2.28,1.79,1.79,0,0,0,.61.91,1.52,1.52,0,0,0,1,.35,3.66,3.66,0,0,0,2.26-1,8,8,0,0,0,2-2.51v-7Z" transform="translate(0.5 0)"/><path class="cls-3" d="M170.85,135.66v-12h1.75v2.75a8.27,8.27,0,0,1,1.54-2.42,2.13,2.13,0,0,1,1.45-.67,1.69,1.69,0,0,1,1.4.68,3.1,3.1,0,0,1,.53,1.94v.64a6.31,6.31,0,0,1,.85-1.78,5.15,5.15,0,0,1,1-1.08,2,2,0,0,1,1.24-.4A1.67,1.67,0,0,1,182,124a4.33,4.33,0,0,1,.55,2.61v9.07h-1.75v-8.2a9.62,9.62,0,0,0-.06-1.38,1,1,0,0,0-.26-.56.59.59,0,0,0-.42-.19q-.56,0-1.2.85a10.69,10.69,0,0,0-1.3,2.83v6.65h-1.67v-8.19q0-1.59-.31-1.87a.9.9,0,0,0-.56-.28q-.55,0-1.18,1a12.84,12.84,0,0,0-1.2,2.45v6.93Z" transform="translate(0.5 0)"/><path class="cls-3" d="M186.36,126.36a6.56,6.56,0,0,1,2.2-2.27,4.66,4.66,0,0,1,2.35-.76,3.62,3.62,0,0,1,2.71,1.3,5.64,5.64,0,0,1,1.2,3.94,8.38,8.38,0,0,1-.8,3.72,6.74,6.74,0,0,1-2.13,2.59,5.52,5.52,0,0,1-3.3,1q-.56,0-1.72-.12l-.52-.05h-2V118.33h2Zm0,2.38v5.15a8,8,0,0,0,2,.28,3.9,3.9,0,0,0,3.06-1.42,5.73,5.73,0,0,0,1.24-3.9,4.48,4.48,0,0,0-.68-2.7,1.92,1.92,0,0,0-1.54-.9,3.33,3.33,0,0,0-2.06.95A9.18,9.18,0,0,0,186.36,128.74Z" transform="translate(0.5 0)"/><path class="cls-3" d="M197.42,135v-2.12A8,8,0,0,0,200,134a10.21,10.21,0,0,0,2.28.32,3.76,3.76,0,0,0,2.18-.49,1.46,1.46,0,0,0,.67-1.22,1.19,1.19,0,0,0-.31-.83,4.88,4.88,0,0,0-1.55-.85l-.69-.28-1.39-.55a7.11,7.11,0,0,1-2.81-1.61,2.75,2.75,0,0,1-.59-1.78,3,3,0,0,1,1.15-2.44,5.79,5.79,0,0,1,3.72-1,11.75,11.75,0,0,1,3.65.56v1.82a11.07,11.07,0,0,0-3.72-.71,3.75,3.75,0,0,0-2,.45,1.3,1.3,0,0,0-.72,1.11,1.17,1.17,0,0,0,.62,1,11.22,11.22,0,0,0,2,.89l1.35.49a6.86,6.86,0,0,1,2.61,1.47,2.79,2.79,0,0,1,.75,2A3.2,3.2,0,0,1,206,135a5.92,5.92,0,0,1-3.83,1A12.73,12.73,0,0,1,197.42,135Z" transform="translate(0.5 0)"/><path class="cls-3" d="M226.71,128.58v-3.73l-2.82,2-1-1.73,3.3-1.61-3.3-1.63,1-1.71,2.82,2V118.5h2v3.74l2.83-2,1,1.7-3.31,1.63,3.31,1.61-1,1.74-2.83-2v3.73Z" transform="translate(0.5 0)"/><path class="cls-3" d="M236.22,136.17h-2l10.59-17.67h1.9Z" transform="translate(0.5 0)"/></svg>